<?xml version="1.0"?>
<svg xmlns="http://www.w3.org/2000/svg" xmlns:xlink="http://www.w3.org/1999/xlink" version="1.1" id="Capa_1" x="0px" y="0px" viewBox="0 0 512 512" style="enable-background:new 0 0 512 512;" xml:space="preserve" width="512px" height="512px"><g><g>
	<g>
		<path d="M384.082,60.048c-9.042,0-17.951,1.06-26.624,3.16C338.687,24.878,299.556,0,256,0    c-43.556,0-82.687,24.878-101.458,63.208c-8.673-2.1-17.582-3.16-26.624-3.16c-62.293,0-112.973,50.679-112.973,112.973    c0,57.21,42.742,104.624,97.973,111.981V512h286.164V285.001c55.23-7.357,97.973-54.771,97.973-111.981    C497.055,110.727,446.375,60.048,384.082,60.048z M369.082,482H142.918v-30.048h226.164V482z M384.082,255.993h-15v165.959    h-55.388V270.993h-30v150.959h-55.388V270.993h-30v150.959h-55.388V255.993h-15c-45.751,0-82.973-37.221-82.973-82.973    s37.221-82.973,82.973-82.973c10.287,0,20.329,1.861,29.848,5.533l14.599,5.63l5.01-14.823C188.773,52.661,220.371,30,256,30    c35.629,0,67.227,22.661,78.626,56.388l5.01,14.823l14.599-5.63c9.519-3.671,19.561-5.533,29.848-5.533    c45.751,0,82.973,37.221,82.973,82.973C467.056,218.773,429.833,255.993,384.082,255.993z" data-original="#000000" class="active-path" data-old_color="#FD821C" fill="#D4772A"/>
	</g>
</g></g> </svg>
