<svg id="Layer_1" data-name="Layer 1" xmlns="http://www.w3.org/2000/svg" viewBox="0 0 100 100"><defs><style>.cls-1{fill:#dd7a27;}.cls-2{fill:#fff;stroke:#231815;stroke-miterlimit:10;stroke-width:0.1px;}.cls-3{fill:#eecc5a;}.cls-4,.cls-5{fill:none;stroke-linecap:round;stroke-linejoin:round;stroke-width:1.47px;}.cls-4{stroke:#eecc59;}.cls-5{stroke:#fff;}.cls-6{font-size:8.6px;font-family:Ubuntu-Bold, Ubuntu;font-weight:700;}.cls-6,.cls-9{fill:#00282c;}.cls-7{letter-spacing:-0.01em;}.cls-8{letter-spacing:-0.02em;}.cls-9{font-size:5.04px;font-family:OpenSans-Italic, Open Sans;font-style:italic;}</style></defs><title>logowithword</title><polygon class="cls-1" points="36.56 6.35 86.25 12.2 86.57 9.57 36.67 5.43 36.56 6.35"/><circle class="cls-2" cx="46.76" cy="44.99" r="32.31"/><circle class="cls-3" cx="46.76" cy="44.99" r="29.07"/><path class="cls-4" d="M53,72.66a18.15,18.15,0,0,1,3.67-8c8.75-11.42,0-20.48,0-20.48s-8.75-9.57,0-21,0-20.48,0-20.48"/><path class="cls-4" d="M40.08,72.47a18.25,18.25,0,0,1,3.64-7.77c8.75-11.42,0-20.48,0-20.48s-8.75-9.57,0-21,0-20.48,0-20.48"/><path class="cls-5" d="M52.14,72.83a18.07,18.07,0,0,1,3.7-8.13c8.75-11.42,0-20.48,0-20.48s-8.75-9.57,0-21,0-20.48,0-20.48"/><path class="cls-5" d="M39.28,72.26a18.36,18.36,0,0,1,3.6-7.57c8.75-11.42,0-20.48,0-20.48s-8.75-9.57,0-21,0-20.48,0-20.48"/><path class="cls-4" d="M46.44,73.28A17.86,17.86,0,0,1,50.2,64.7c8.75-11.42,0-20.48,0-20.48s-8.75-9.57,0-21,0-20.48,0-20.48"/><path class="cls-5" d="M45.59,73.26a17.87,17.87,0,0,1,3.76-8.56c8.75-11.42,0-20.48,0-20.48s-8.75-9.57,0-21,0-20.48,0-20.48"/><path class="cls-4" d="M34.16,70.33a19.49,19.49,0,0,1,3.08-5.63c8.75-11.42,0-20.48,0-20.48s-8.75-9.57,0-21,0-20.48,0-20.48"/><path class="cls-5" d="M33.44,70a19.73,19.73,0,0,1,2.95-5.27c8.75-11.42,0-20.48,0-20.48s-8.75-9.57,0-21,0-20.48,0-20.48"/><polygon class="cls-1" points="36.52 5.08 86.62 5.11 86.57 2.46 36.5 4.16 36.52 5.08"/><text class="cls-6" transform="translate(20.2 87.88)"><tspan class="cls-7">F</tspan><tspan x="4.87" y="0">OOD </tspan><tspan class="cls-8" x="26.86" y="0">C</tspan><tspan x="32.22" y="0">OMA</tspan></text><text class="cls-9" transform="translate(19.81 95.39)">Where you feel at home!</text></svg>