<?xml version="1.0" encoding="utf-8"?>
<!-- Generator: Adobe Illustrator 21.0.0, SVG Export Plug-In . SVG Version: 6.00 Build 0)  -->
<svg version="1.1" id="Layer_1" xmlns="http://www.w3.org/2000/svg" xmlns:xlink="http://www.w3.org/1999/xlink" x="0px" y="0px"
	 viewBox="0 0 500 500" style="enable-background:new 0 0 500 500;" xml:space="preserve">
<style type="text/css">
	.st0{fill:#DC7A27;}
	.st1{fill:#FFFFFF;stroke:#231815;stroke-width:0.5562;stroke-miterlimit:10;}
	.st2{fill:#EDCB5A;}
	.st3{fill:none;stroke:#EDCB5A;stroke-width:8.3429;stroke-linecap:round;stroke-linejoin:round;stroke-miterlimit:10;}
	.st4{fill:none;stroke:#FFFFFF;stroke-width:8.3429;stroke-linecap:round;stroke-linejoin:round;stroke-miterlimit:10;}
	.st5{fill:#231815;}
</style>
<polygon class="st0" points="168.8,26.4 450.9,59.6 452.7,44.6 169.5,21.2 "/>
<circle class="st1" cx="226.8" cy="245.7" r="183.4"/>
<circle class="st2" cx="226.8" cy="245.7" r="165.1"/>
<path class="st3" d="M262.3,402.8c2.4-14,8.6-29.3,20.8-45.2c49.7-64.9,0-116.3,0-116.3s-49.7-54.3,0-119.2s0-116.3,0-116.3"/>
<path class="st3" d="M188.8,401.7c2.6-13.7,8.8-28.6,20.6-44.1c49.7-64.9,0-116.3,0-116.3s-49.7-54.3,0-119.2
	c49.7-64.9,0-116.3,0-116.3"/>
<path class="st4" d="M257.3,403.8c2.3-14.3,8.5-29.9,21-46.2c49.7-64.9,0-116.3,0-116.3s-49.7-54.3,0-119.2s0-116.3,0-116.3"/>
<path class="st4" d="M184.3,400.5c2.7-13.4,8.9-27.9,20.4-43c49.7-64.9,0-116.3,0-116.3s-49.7-54.3,0-119.2s0-116.3,0-116.3"/>
<path class="st3" d="M224.9,406.3c2-15,8.1-31.5,21.4-48.7c49.7-64.9,0-116.3,0-116.3s-49.7-54.3,0-119.2s0-116.3,0-116.3"/>
<path class="st4" d="M220.1,406.2c2-14.9,8.2-31.4,21.4-48.6c49.7-64.9,0-116.3,0-116.3s-49.7-54.3,0-119.2
	c49.7-64.9,0-116.3,0-116.3"/>
<path class="st3" d="M155.2,389.5c3.4-10.2,9-20.9,17.5-32c49.7-64.9,0-116.3,0-116.3s-49.7-54.3,0-119.2s0-116.3,0-116.3"/>
<path class="st4" d="M151.1,387.5c3.5-9.6,8.9-19.6,16.7-29.9c49.7-64.9,0-116.3,0-116.3s-49.7-54.3,0-119.2s0-116.3,0-116.3"/>
<polygon class="st0" points="168.6,19.2 453.1,19.3 452.7,4.3 168.5,14 "/>
<g>
	<path class="st5" d="M79.9,489.2v-33.8h22.7v6.4h-15v7.1h13.4v6.4H87.5v14H79.9z"/>
	<path class="st5" d="M139.7,472.3c0,2.9-0.4,5.4-1.3,7.6c-0.9,2.2-2,4-3.5,5.5c-1.5,1.5-3.3,2.6-5.3,3.3c-2.1,0.7-4.3,1.1-6.7,1.1
		c-2.3,0-4.5-0.4-6.5-1.1s-3.8-1.9-5.4-3.3c-1.5-1.5-2.7-3.3-3.6-5.5c-0.9-2.2-1.3-4.7-1.3-7.6c0-2.9,0.5-5.4,1.4-7.6
		c0.9-2.2,2.1-4,3.7-5.5c1.5-1.5,3.3-2.6,5.4-3.4c2-0.7,4.2-1.1,6.4-1.1c2.3,0,4.5,0.4,6.5,1.1s3.8,1.9,5.4,3.4
		c1.5,1.5,2.7,3.3,3.6,5.5C139.3,466.8,139.7,469.4,139.7,472.3z M113.9,472.3c0,1.7,0.2,3.2,0.6,4.5c0.4,1.3,1,2.5,1.8,3.4
		c0.8,1,1.7,1.7,2.8,2.2c1.1,0.5,2.4,0.8,3.8,0.8c1.4,0,2.7-0.3,3.8-0.8c1.1-0.5,2.1-1.3,2.8-2.2c0.8-1,1.4-2.1,1.8-3.4
		c0.4-1.3,0.6-2.8,0.6-4.5s-0.2-3.2-0.6-4.5c-0.4-1.4-1-2.5-1.8-3.5c-0.8-1-1.7-1.7-2.8-2.2c-1.1-0.5-2.4-0.8-3.8-0.8
		c-1.4,0-2.7,0.3-3.8,0.8c-1.1,0.5-2,1.3-2.8,2.2c-0.8,1-1.4,2.1-1.8,3.5C114.1,469.2,113.9,470.6,113.9,472.3z"/>
	<path class="st5" d="M178.3,472.3c0,2.9-0.4,5.4-1.3,7.6c-0.9,2.2-2,4-3.5,5.5c-1.5,1.5-3.3,2.6-5.3,3.3c-2.1,0.7-4.3,1.1-6.7,1.1
		c-2.3,0-4.5-0.4-6.5-1.1s-3.8-1.9-5.4-3.3c-1.5-1.5-2.7-3.3-3.6-5.5c-0.9-2.2-1.3-4.7-1.3-7.6c0-2.9,0.5-5.4,1.4-7.6
		c0.9-2.2,2.1-4,3.7-5.5c1.5-1.5,3.3-2.6,5.4-3.4c2-0.7,4.2-1.1,6.4-1.1c2.3,0,4.5,0.4,6.5,1.1s3.8,1.9,5.4,3.4
		c1.5,1.5,2.7,3.3,3.6,5.5C177.9,466.8,178.3,469.4,178.3,472.3z M152.5,472.3c0,1.7,0.2,3.2,0.6,4.5c0.4,1.3,1,2.5,1.8,3.4
		c0.8,1,1.7,1.7,2.8,2.2c1.1,0.5,2.4,0.8,3.8,0.8c1.4,0,2.7-0.3,3.8-0.8c1.1-0.5,2.1-1.3,2.8-2.2c0.8-1,1.4-2.1,1.8-3.4
		c0.4-1.3,0.6-2.8,0.6-4.5s-0.2-3.2-0.6-4.5c-0.4-1.4-1-2.5-1.8-3.5c-0.8-1-1.7-1.7-2.8-2.2c-1.1-0.5-2.4-0.8-3.8-0.8
		c-1.4,0-2.7,0.3-3.8,0.8c-1.1,0.5-2,1.3-2.8,2.2c-0.8,1-1.4,2.1-1.8,3.5C152.7,469.2,152.5,470.6,152.5,472.3z"/>
	<path class="st5" d="M214.3,472.3c0,2.9-0.5,5.5-1.4,7.7c-0.9,2.2-2.2,4-3.9,5.4c-1.7,1.4-3.7,2.5-6.1,3.2
		c-2.4,0.7-5.1,1.1-8.1,1.1c-1.4,0-3-0.1-4.8-0.2c-1.8-0.1-3.6-0.3-5.4-0.7v-33c1.8-0.3,3.6-0.5,5.5-0.7c1.9-0.1,3.5-0.2,4.9-0.2
		c2.9,0,5.5,0.3,7.9,1c2.4,0.7,4.4,1.7,6.1,3.1c1.7,1.4,3,3.2,3.9,5.4C213.8,466.6,214.3,469.2,214.3,472.3z M192.3,483
		c0.4,0,0.8,0.1,1.2,0.1c0.5,0,1,0,1.7,0c3.8,0,6.6-1,8.5-2.9s2.8-4.6,2.8-8c0-3.5-0.9-6.2-2.6-8.1c-1.8-1.8-4.5-2.7-8.3-2.7
		c-0.5,0-1.1,0-1.6,0c-0.6,0-1.1,0.1-1.6,0.1V483z"/>
	<path class="st5" d="M247.8,489.9c-5.5,0-9.7-1.5-12.6-4.6c-2.9-3.1-4.3-7.4-4.3-13c0-2.8,0.4-5.3,1.3-7.5c0.9-2.2,2.1-4.1,3.6-5.6
		c1.5-1.5,3.4-2.7,5.5-3.4c2.1-0.8,4.4-1.2,6.9-1.2c1.4,0,2.7,0.1,3.9,0.3s2.2,0.5,3.1,0.7s1.6,0.6,2.2,0.9s1,0.5,1.3,0.7l-2.2,6.2
		c-1-0.6-2.3-1-3.6-1.4c-1.4-0.4-3-0.6-4.7-0.6c-1.2,0-2.3,0.2-3.4,0.6c-1.1,0.4-2.1,1-3,1.9c-0.9,0.9-1.6,2-2.1,3.3
		c-0.5,1.4-0.8,3-0.8,5c0,1.6,0.2,3,0.5,4.4s0.9,2.5,1.7,3.5c0.8,1,1.8,1.8,3,2.3c1.2,0.6,2.7,0.9,4.5,0.9c1.1,0,2.1-0.1,3-0.2
		c0.9-0.1,1.7-0.3,2.3-0.5s1.3-0.4,1.8-0.6c0.5-0.2,1-0.4,1.4-0.6l2.1,6.1c-1.1,0.7-2.6,1.2-4.5,1.8S250.3,489.9,247.8,489.9z"/>
	<path class="st5" d="M295,472.3c0,2.9-0.4,5.4-1.3,7.6s-2,4-3.5,5.5c-1.5,1.5-3.3,2.6-5.3,3.3c-2.1,0.7-4.3,1.1-6.7,1.1
		c-2.3,0-4.5-0.4-6.5-1.1s-3.8-1.9-5.4-3.3c-1.5-1.5-2.7-3.3-3.6-5.5s-1.3-4.7-1.3-7.6c0-2.9,0.5-5.4,1.4-7.6c0.9-2.2,2.1-4,3.7-5.5
		c1.5-1.5,3.3-2.6,5.4-3.4s4.2-1.1,6.4-1.1c2.3,0,4.5,0.4,6.5,1.1s3.8,1.9,5.4,3.4c1.5,1.5,2.7,3.3,3.6,5.5S295,469.4,295,472.3z
		 M269.2,472.3c0,1.7,0.2,3.2,0.6,4.5c0.4,1.3,1,2.5,1.8,3.4c0.8,1,1.7,1.7,2.8,2.2c1.1,0.5,2.4,0.8,3.8,0.8c1.4,0,2.7-0.3,3.8-0.8
		s2.1-1.3,2.8-2.2c0.8-1,1.4-2.1,1.8-3.4c0.4-1.3,0.6-2.8,0.6-4.5s-0.2-3.2-0.6-4.5c-0.4-1.4-1-2.5-1.8-3.5c-0.8-1-1.7-1.7-2.8-2.2
		c-1.1-0.5-2.4-0.8-3.8-0.8c-1.4,0-2.7,0.3-3.8,0.8c-1.1,0.5-2,1.3-2.8,2.2c-0.8,1-1.4,2.1-1.8,3.5S269.2,470.6,269.2,472.3z"/>
	<path class="st5" d="M310.3,455.4c0.6,1.1,1.3,2.4,2,4c0.8,1.6,1.6,3.3,2.4,5.1c0.8,1.8,1.7,3.7,2.5,5.6c0.8,1.9,1.6,3.7,2.3,5.4
		c0.7-1.7,1.5-3.5,2.3-5.4c0.8-1.9,1.6-3.8,2.5-5.6c0.8-1.8,1.6-3.5,2.4-5.1c0.8-1.6,1.4-2.9,2-4h6.9c0.3,2.2,0.6,4.8,0.9,7.5
		c0.3,2.8,0.5,5.7,0.7,8.7c0.2,3,0.4,6,0.6,9.1c0.2,3,0.3,5.9,0.5,8.5h-7.4c-0.1-3.3-0.2-6.9-0.4-10.7c-0.2-3.9-0.4-7.8-0.7-11.7
		c-0.6,1.4-1.2,2.9-2,4.5c-0.7,1.7-1.4,3.3-2.1,5c-0.7,1.7-1.4,3.2-2,4.8c-0.7,1.5-1.2,2.8-1.7,3.9h-5.3c-0.5-1.1-1-2.4-1.7-3.9
		s-1.3-3.1-2-4.8c-0.7-1.7-1.4-3.3-2.1-5c-0.7-1.7-1.4-3.2-2-4.5c-0.3,3.9-0.6,7.8-0.7,11.7c-0.2,3.9-0.3,7.5-0.4,10.7h-7.4
		c0.1-2.7,0.3-5.5,0.5-8.5c0.2-3,0.4-6,0.6-9.1c0.2-3,0.5-5.9,0.7-8.7c0.3-2.8,0.6-5.3,0.9-7.5H310.3z"/>
	<path class="st5" d="M367.8,489.2c-0.4-1.2-0.8-2.4-1.2-3.6c-0.4-1.2-0.9-2.5-1.3-3.7h-13.2c-0.4,1.2-0.9,2.5-1.3,3.7
		s-0.8,2.4-1.2,3.6h-7.9c1.3-3.6,2.5-7,3.6-10.1c1.1-3.1,2.3-6,3.4-8.7c1.1-2.7,2.2-5.3,3.2-7.8c1.1-2.5,2.2-4.9,3.3-7.2h7.2
		c1.1,2.3,2.2,4.7,3.3,7.2c1.1,2.5,2.2,5.1,3.3,7.8c1.1,2.7,2.2,5.6,3.4,8.7c1.1,3.1,2.4,6.5,3.6,10.1H367.8z M358.7,463
		c-0.2,0.5-0.4,1.2-0.7,2s-0.7,1.8-1.1,2.9s-0.9,2.3-1.4,3.7c-0.5,1.3-1,2.7-1.6,4.2h9.7c-0.5-1.5-1-2.9-1.5-4.2
		c-0.5-1.3-0.9-2.6-1.4-3.7c-0.4-1.1-0.8-2.1-1.1-2.9C359.1,464.2,358.9,463.5,358.7,463z"/>
</g>
</svg>
