<?xml version="1.0" encoding="utf-8"?>
<!-- Generator: Adobe Illustrator 21.0.0, SVG Export Plug-In . SVG Version: 6.00 Build 0)  -->
<svg version="1.1" id="Layer_1" xmlns="http://www.w3.org/2000/svg" xmlns:xlink="http://www.w3.org/1999/xlink" x="0px" y="0px"
	 viewBox="0 0 500 500" style="enable-background:new 0 0 500 500;" xml:space="preserve">
<style type="text/css">
	.st0{fill:#E6C65B;}
	.st1{fill:#231815;}
</style>
<title>logo_bowl</title>
<path class="st0" d="M483.8,66.4H13.1c0,11.4,0.8,22.8,2.5,34.2h465.7C483,89.2,483.8,77.8,483.8,66.4z"/>
<path class="st0" d="M476.8,123.3H20.1c18.6,74.9,69.7,135.6,140.7,162.8l0,0v27.6h175.3v-27.6l0,0
	C407.1,258.9,458.2,198.2,476.8,123.3z"/>
<g>
	<path class="st1" d="M174.7,393.3h7.6v33.8h-7.6v-14.4h-12.8v14.4h-7.6v-33.8h7.6v12.9h12.8V393.3z"/>
	<path class="st1" d="M211.6,426.3c-1.2,0.4-2.8,0.7-4.8,1c-2,0.3-4,0.5-6.2,0.5c-2.2,0-4-0.3-5.4-0.9c-1.4-0.6-2.6-1.4-3.4-2.5
		c-0.8-1.1-1.4-2.3-1.8-3.8c-0.4-1.5-0.5-3.1-0.5-4.8v-14.3h7.3v13.4c0,2.3,0.3,4,0.9,5.1c0.6,1,1.8,1.6,3.5,1.6
		c0.5,0,1.1,0,1.7-0.1c0.6,0,1.1-0.1,1.6-0.2v-19.8h7.3V426.3z"/>
	<path class="st1" d="M218.4,402.4c1.2-0.4,2.8-0.7,4.8-1c2-0.3,4-0.5,6.2-0.5c2.2,0,4,0.3,5.4,0.9c1.4,0.6,2.6,1.4,3.4,2.4
		c0.8,1,1.4,2.3,1.8,3.7c0.4,1.4,0.5,3,0.5,4.8v14.5h-7.3v-13.6c0-2.3-0.3-4-0.9-5c-0.6-1-1.8-1.5-3.5-1.5c-0.5,0-1.1,0-1.7,0.1
		s-1.1,0.1-1.6,0.2v19.8h-7.3V402.4z"/>
	<path class="st1" d="M269.3,424c0,4.2-1.1,7.3-3.2,9.4c-2.1,2-5.4,3.1-9.9,3.1c-1.6,0-3.1-0.1-4.7-0.4s-3-0.6-4.3-1.1l1.3-6.1
		c1.1,0.5,2.3,0.8,3.6,1.1c1.3,0.3,2.7,0.4,4.3,0.4c2.1,0,3.6-0.5,4.4-1.4c0.9-0.9,1.3-2.1,1.3-3.5v-0.9c-0.8,0.4-1.6,0.6-2.4,0.8
		c-0.8,0.2-1.7,0.3-2.7,0.3c-3.5,0-6.3-1-8.2-3.1c-1.9-2.1-2.8-5-2.8-8.8c0-1.9,0.3-3.6,0.9-5.2c0.6-1.5,1.4-2.9,2.6-4
		s2.5-2,4.1-2.6c1.6-0.6,3.5-0.9,5.5-0.9c0.9,0,1.8,0,2.7,0.1c0.9,0.1,1.8,0.2,2.8,0.3c0.9,0.1,1.8,0.3,2.6,0.5
		c0.8,0.2,1.6,0.4,2.2,0.6V424z M253.4,413.5c0,4.1,1.6,6.1,4.9,6.1c0.7,0,1.4-0.1,2.1-0.3s1.2-0.4,1.7-0.7V407
		c-0.4-0.1-0.8-0.1-1.3-0.2s-1.1-0.1-1.7-0.1c-1.9,0-3.4,0.6-4.3,1.9C253.9,409.9,253.4,411.6,253.4,413.5z"/>
	<path class="st1" d="M291.7,407.9c-0.7-0.2-1.4-0.3-2.3-0.5s-1.8-0.3-2.8-0.3c-0.5,0-1,0-1.6,0.1s-1.1,0.2-1.4,0.3v19.6h-7.3v-24.3
		c1.3-0.5,2.8-0.9,4.6-1.3c1.8-0.4,3.8-0.6,5.9-0.6c0.4,0,0.9,0,1.4,0.1c0.6,0,1.1,0.1,1.7,0.2c0.6,0.1,1.1,0.2,1.7,0.3
		c0.6,0.1,1,0.3,1.4,0.4L291.7,407.9z"/>
	<path class="st1" d="M321.2,401.5c-1.5,4.9-3,9.6-4.6,13.9c-1.6,4.3-3.3,8.5-5.2,12.6c-0.7,1.5-1.4,2.7-2.1,3.7
		c-0.7,1-1.4,1.9-2.2,2.5c-0.8,0.7-1.7,1.2-2.8,1.5c-1,0.3-2.2,0.5-3.6,0.5c-1.1,0-2.2-0.1-3.2-0.3s-1.8-0.4-2.4-0.7l1.3-5.8
		c0.7,0.3,1.4,0.4,2,0.5c0.6,0.1,1.2,0.1,1.9,0.1c1.3,0,2.3-0.4,3-1c0.7-0.7,1.3-1.7,1.8-2.9c-1.7-3.3-3.3-6.9-5-11
		c-1.7-4.1-3.2-8.6-4.7-13.6h7.7c0.3,1.3,0.7,2.6,1.2,4.1c0.4,1.5,0.9,3,1.4,4.5c0.5,1.5,1,3,1.5,4.4c0.5,1.4,1,2.7,1.4,3.9
		c0.4-1.2,0.9-2.5,1.3-3.9c0.5-1.4,0.9-2.9,1.3-4.4c0.4-1.5,0.9-3,1.3-4.5c0.4-1.5,0.8-2.9,1.1-4.1H321.2z"/>
	<path class="st1" d="M331.4,398.8c-1.2,0-2.3,0.1-3.3,0.4s-2.2,0.8-3.5,1.4l-2.1-5.5c1.3-0.8,2.8-1.4,4.5-1.9
		c1.7-0.4,3.4-0.7,5.1-0.7c2.1,0,3.8,0.3,5.2,0.8c1.3,0.6,2.4,1.3,3.2,2.1c0.8,0.8,1.3,1.8,1.6,2.8c0.3,1,0.5,2,0.5,2.9
		c0,0.9-0.1,1.8-0.4,2.5s-0.6,1.5-1,2.1s-0.9,1.3-1.5,1.9c-0.6,0.6-1.1,1.1-1.6,1.7c-0.4,0.4-0.8,0.8-1.2,1.2
		c-0.4,0.4-0.8,0.9-1.1,1.4s-0.6,1-0.9,1.5c-0.2,0.5-0.3,1.1-0.3,1.6c0,0.1,0,0.3,0,0.6c0,0.3,0,0.5,0,0.7h-6.4
		c-0.1-0.3-0.1-0.7-0.1-1.1c0-0.4,0-0.8,0-1c0-0.9,0.1-1.7,0.3-2.5s0.5-1.4,0.9-2.1s0.8-1.2,1.3-1.8s1-1.1,1.5-1.6
		c0.7-0.7,1.4-1.5,2.1-2.2c0.6-0.7,0.9-1.6,0.9-2.5c0-0.8-0.3-1.4-0.9-2C333.5,399,332.6,398.8,331.4,398.8z M335.9,423.3
		c0,1.4-0.5,2.5-1.4,3.3s-2,1.2-3.1,1.2s-2.2-0.4-3.1-1.2c-0.9-0.8-1.4-1.9-1.4-3.3c0-1.4,0.5-2.5,1.4-3.3c0.9-0.8,2-1.2,3.1-1.2
		s2.2,0.4,3.1,1.2C335.5,420.8,335.9,421.9,335.9,423.3z"/>
</g>
</svg>
