<svg id="Layer_1" data-name="Layer 1" xmlns="http://www.w3.org/2000/svg" viewBox="0 0 500 500"><defs><style>.cls-1{fill:#dd7a27;}.cls-2{fill:#fff;stroke:#231815;stroke-miterlimit:10;stroke-width:0.54px;}.cls-3{fill:#eecc59;}.cls-4,.cls-5{fill:none;stroke-linecap:round;stroke-linejoin:round;stroke-width:8.16px;}.cls-4{stroke:#eecc59;}.cls-5{stroke:#fff;}.cls-6{font-size:47.76px;fill:#231815;font-family:Ubuntu-Bold, Ubuntu;font-weight:700;}.cls-7{letter-spacing:-0.01em;}.cls-8{letter-spacing:-0.02em;}</style></defs><title>logowithword-01</title><polygon class="cls-1" points="168.36 35.73 444.29 68.22 446.04 53.6 168.97 30.65 168.36 35.73"/><circle class="cls-2" cx="225.03" cy="250.3" r="179.38"/><circle class="cls-3" cx="225.03" cy="250.3" r="161.44"/><path class="cls-4" d="M259.75,403.91c2.38-13.69,8.45-28.64,20.37-44.2,48.6-63.44,0-113.73,0-113.73s-48.6-53.15,0-116.58,0-113.73,0-113.73"/><path class="cls-4" d="M187.93,402.87c2.5-13.41,8.56-28,20.18-43.16,48.6-63.44,0-113.73,0-113.73s-48.6-53.15,0-116.58,0-113.73,0-113.73"/><path class="cls-5" d="M254.9,404.86c2.26-13.95,8.33-29.22,20.53-45.15,48.6-63.44,0-113.73,0-113.73s-48.6-53.15,0-116.58,0-113.73,0-113.73"/><path class="cls-5" d="M183.46,401.72c2.63-13.09,8.67-27.28,20-42,48.6-63.44,0-113.73,0-113.73s-48.6-53.15,0-116.58,0-113.73,0-113.73"/><path class="cls-4" d="M223.22,407.39c1.91-14.62,8-30.79,20.9-47.68,48.6-63.44,0-113.73,0-113.73s-48.6-53.15,0-116.58,0-113.73,0-113.73"/><path class="cls-5" d="M218.54,407.24c1.93-14.59,8-30.7,20.88-47.53,48.6-63.44,0-113.73,0-113.73s-48.6-53.15,0-116.58,0-113.73,0-113.73"/><path class="cls-4" d="M155,391a108.22,108.22,0,0,1,17.08-31.26c48.6-63.44,0-113.73,0-113.73s-48.6-53.15,0-116.58,0-113.73,0-113.73"/><path class="cls-5" d="M151.06,388.95a109.56,109.56,0,0,1,16.37-29.24c48.6-63.44,0-113.73,0-113.73s-48.6-53.15,0-116.58,0-113.73,0-113.73"/><polygon class="cls-1" points="168.15 28.71 446.36 28.86 446.06 14.16 168.04 23.6 168.15 28.71"/><text class="cls-6" transform="translate(77.52 488.44)"><tspan class="cls-7">F</tspan><tspan x="27.03" y="0">OOD </tspan><tspan class="cls-8" x="149.14" y="0">C</tspan><tspan x="178.89" y="0">OMA</tspan></text></svg>