<svg id="Layer_1" data-name="Layer 1" xmlns="http://www.w3.org/2000/svg" viewBox="0 0 60 12"><defs><style>.cls-1{fill:#dd7a27;}.cls-2{fill:#727171;}.cls-3{font-size:4.4px;fill:#231815;font-family:Tajawal-Medium, Tajawal Medium;}</style></defs><title>stars4</title><polygon class="cls-1" points="5.79 1.64 7.21 4.51 10.37 4.97 8.08 7.2 8.62 10.36 5.79 8.87 2.96 10.36 3.5 7.2 1.21 4.97 4.38 4.51 5.79 1.64"/><polygon class="cls-1" points="15.4 1.64 16.82 4.51 19.99 4.97 17.7 7.2 18.24 10.36 15.4 8.87 12.57 10.36 13.12 7.2 10.82 4.97 13.99 4.51 15.4 1.64"/><polygon class="cls-1" points="25.02 1.64 26.43 4.51 29.6 4.97 27.31 7.2 27.85 10.36 25.02 8.87 22.19 10.36 22.73 7.2 20.44 4.97 23.6 4.51 25.02 1.64"/><polygon class="cls-1" points="34.63 1.64 36.05 4.51 39.22 4.97 36.92 7.2 37.47 10.36 34.63 8.87 31.8 10.36 32.34 7.2 30.05 4.97 33.22 4.51 34.63 1.64"/><polygon class="cls-2" points="44.25 1.64 45.66 4.51 48.83 4.97 46.54 7.2 47.08 10.36 44.25 8.87 41.42 10.36 41.96 7.2 39.67 4.97 42.83 4.51 44.25 1.64"/><text class="cls-3" transform="translate(49.89 8.71)">(179)</text></svg>