<svg id="Layer_1" data-name="Layer 1" xmlns="http://www.w3.org/2000/svg" viewBox="0 0 405.48 367.81"><defs><style>.cls-1{fill:#898989;}.cls-2{fill:#f3c757;}.cls-3{fill:#ef882d;}</style></defs><title>cart_icon</title><path class="cls-1" d="M364.79,295.23H74.74a6.37,6.37,0,0,1-6.37-6.37V30.72H34.16a6.37,6.37,0,1,1,0-12.74H74.74a6.37,6.37,0,0,1,6.37,6.37V282.49H364.79a6.37,6.37,0,1,1,0,12.74Z"/><polygon class="cls-2" points="334.71 249.79 74.73 249.79 74.73 75.45 364.8 75.45 334.71 249.79"/><path class="cls-1" d="M334.71,253.61h-260a3.82,3.82,0,0,1-3.82-3.83V75.45a3.81,3.81,0,0,1,3.82-3.82H364.79A3.81,3.81,0,0,1,367.7,73a3.73,3.73,0,0,1,.85,3.11L338.47,250.42A3.8,3.8,0,0,1,334.71,253.61ZM78.56,245.95H331.5L360.26,79.27H78.56Z"/><circle class="cls-1" cx="143.3" cy="322.37" r="27.63"/><circle class="cls-1" cx="307.08" cy="322.37" r="27.63"/><path class="cls-3" d="M298.46,199.07H124.11a6.37,6.37,0,1,1,0-12.74H298.46a6.37,6.37,0,1,1,0,12.74Z"/><path class="cls-3" d="M298.46,126.88H124.11a6.37,6.37,0,0,1,0-12.74H298.46a6.37,6.37,0,1,1,0,12.74Z"/></svg>