<svg id="Layer_1" data-name="Layer 1" xmlns="http://www.w3.org/2000/svg" viewBox="0 0 500 500"><defs><style>.cls-1{fill:#dd7a27;}.cls-2{fill:#fff;stroke:#231815;stroke-miterlimit:10;stroke-width:0.64px;}.cls-3{fill:#eecc59;}.cls-4,.cls-5{fill:none;stroke-linecap:round;stroke-linejoin:round;stroke-width:9.59px;}.cls-4{stroke:#eecc59;}.cls-5{stroke:#fff;}</style></defs><title>LOGO</title><polygon class="cls-1" points="158.96 31.13 483.32 69.32 485.39 52.14 159.68 25.16 158.96 31.13"/><circle class="cls-2" cx="225.57" cy="283.36" r="210.87"/><circle class="cls-3" cx="225.57" cy="283.36" r="189.78"/><path class="cls-4" d="M266.39,463.94c2.79-16.1,9.93-33.66,23.95-52,57.14-74.57,0-133.69,0-133.69s-57.14-62.48,0-137.05,0-133.69,0-133.69"/><path class="cls-4" d="M182,462.72C184.9,447,192,429.82,205.69,412c57.14-74.57,0-133.69,0-133.69s-57.14-62.48,0-137.05,0-133.69,0-133.69"/><path class="cls-5" d="M260.69,465.06c2.65-16.4,9.79-34.36,24.14-53.08,57.14-74.57,0-133.69,0-133.69s-57.14-62.48,0-137.05,0-133.69,0-133.69"/><path class="cls-5" d="M176.71,461.37C179.8,446,186.9,429.31,200.18,412c57.14-74.57,0-133.69,0-133.69s-57.14-62.48,0-137.05,0-133.69,0-133.69"/><path class="cls-4" d="M223.44,468c2.25-17.19,9.36-36.19,24.57-56,57.14-74.57,0-133.69,0-133.69s-57.14-62.48,0-137.05S248,7.55,248,7.55"/><path class="cls-5" d="M218,467.86c2.27-17.15,9.38-36.09,24.55-55.88,57.14-74.57,0-133.69,0-133.69s-57.14-62.48,0-137.05,0-133.69,0-133.69"/><path class="cls-4" d="M143.3,448.73A127.22,127.22,0,0,1,163.37,412c57.14-74.57,0-133.69,0-133.69s-57.14-62.48,0-137.05,0-133.69,0-133.69"/><path class="cls-5" d="M138.62,446.35A128.8,128.8,0,0,1,157.86,412c57.14-74.57,0-133.69,0-133.69s-57.14-62.48,0-137.05,0-133.69,0-133.69"/><polygon class="cls-1" points="158.71 22.87 485.76 23.05 485.41 5.77 158.58 16.87 158.71 22.87"/></svg>