<svg id="Layer_1" data-name="Layer 1" xmlns="http://www.w3.org/2000/svg" viewBox="0 0 405.48 367.81"><defs><style>.cls-1{fill:#e58430;}.cls-2{fill:#898989;}.cls-3{fill:#f3c757;}.cls-4{fill:#fff;}</style></defs><title>money</title><circle class="cls-1" cx="199.42" cy="184.68" r="173.74"/><path class="cls-2" d="M199.42,361.64c-97.58,0-177-79.39-177-177s79.38-177,177-177,177,79.39,177,177S297,361.64,199.42,361.64Zm0-347.49c-94,0-170.52,76.5-170.52,170.53s76.5,170.51,170.52,170.51,170.52-76.48,170.52-170.51S293.44,14.15,199.42,14.15Z"/><circle class="cls-3" cx="199.42" cy="184.68" r="152.67"/><path class="cls-2" d="M199.42,339.36c-85.3,0-154.69-69.38-154.69-154.68S114.12,30,199.42,30,354.11,99.38,354.11,184.68,284.73,339.36,199.42,339.36Zm0-305.32C116.35,34,48.78,101.61,48.78,184.68s67.58,150.65,150.64,150.65,150.66-67.59,150.66-150.65S282.49,34,199.42,34Z"/><path class="cls-4" d="M194.64,246.11q19.84,0,27.84-6.31a19.67,19.67,0,0,0,8-16.1A21.64,21.64,0,0,0,227,211.34a33.22,33.22,0,0,0-9.29-9,74.79,74.79,0,0,0-13.4-6.95q-7.58-3.1-15.58-5.92-7.74-2.85-15.32-6.32a57.67,57.67,0,0,1-13.52-8.5,39.85,39.85,0,0,1-9.66-12.11q-3.74-7.08-3.73-17.39,0-18.29,10.94-30t31.8-14.81V70.69h21.38V99.54a113.73,113.73,0,0,1,21.13,2.83,144,144,0,0,1,15.45,4.38l-4.88,20.09q-6.19-2.33-15.47-4.77t-23.16-2.45q-15.47,0-23.84,5.93t-8.36,16.74a19.33,19.33,0,0,0,2.43,10.05,24.06,24.06,0,0,0,7.09,7.34,57.48,57.48,0,0,0,10.94,5.8q6.32,2.58,14,5.41,10.06,3.87,19.06,8a67.65,67.65,0,0,1,15.85,9.92,45,45,0,0,1,10.94,13.78q4.12,8,4.13,19.32,0,18.3-11.07,29.5t-34.28,14v33.24H189.23V266.21q-18-.5-29.35-4t-17-6.56l6.44-19.33a124.3,124.3,0,0,0,18.55,6.7Q178.69,246.12,194.64,246.11Z"/></svg>