<?xml version="1.0" encoding="utf-8"?>
<!-- Generator: Adobe Illustrator 21.0.0, SVG Export Plug-In . SVG Version: 6.00 Build 0)  -->
<svg version="1.1" id="Layer_1" xmlns="http://www.w3.org/2000/svg" xmlns:xlink="http://www.w3.org/1999/xlink" x="0px" y="0px"
	 viewBox="0 0 50 50" style="enable-background:new 0 0 50 50;" xml:space="preserve">
<style type="text/css">
	.st0{fill:#FFFFFF;stroke:#040000;stroke-width:1.1564;stroke-miterlimit:10;}
	.st1{fill:#E7C04C;}
</style>
<circle class="st0" cx="25" cy="25.3" r="23.3"/>
<g>
	<path class="st1" d="M33.4,39c0.6-7.2-0.2-29.3-0.2-29.3c-4,1.2-4,7.4-4,7.4s-0.4,4.9-0.3,10.1l2.1,0c0,0,1.4,2.2-0.5,3.2
		c-0.4,0.2-1.1,5.4,0.1,8.5C32,42.9,33.3,39.9,33.4,39z"/>
	<path class="st1" d="M21.3,21.7c2.7-2.1,2.7-3.6,2.7-3.6l0.1-6.6l0-0.8c0-0.4-0.3-0.7-0.7-0.8c-0.4,0-0.7,0.3-0.8,0.7l0,0.9
		l-0.2,6.1c0,0.4-0.4,0.7-0.8,0.7c-0.4,0-0.7-0.4-0.7-0.8l0.2-6.1l0-0.9c0-0.4-0.3-0.7-0.7-0.8c-0.4,0-0.7,0.3-0.8,0.7l-0.1,0.9
		l-0.2,6c0,0.4-0.4,0.7-0.8,0.7c-0.4,0-0.7-0.4-0.7-0.8l0.2-6l0-0.9c0-0.4-0.3-0.8-0.7-0.8c-0.4,0-0.7,0.3-0.8,0.7l0,0.9
		c0,0-0.2,4.4-0.3,6.5c-0.1,2.1,2.7,3.9,2.7,3.9L18.4,39c0,1,0.8,1.8,1.7,1.8h0c1,0,1.7-0.8,1.7-1.8L21.3,21.7z"/>
</g>
</svg>
