<svg id="Layer_1" data-name="Layer 1" xmlns="http://www.w3.org/2000/svg" viewBox="0 0 405.48 367.81"><defs><style>.cls-1{fill:#f3c757;}.cls-2{fill:#898989;}.cls-3{fill:#e58430;}.cls-4{fill:#fff;}</style></defs><title>dine</title><circle class="cls-1" cx="202.93" cy="184.68" r="170.24"/><path class="cls-2" d="M202.94,358.07c-95.61,0-173.4-77.79-173.4-173.4s77.79-173.4,173.4-173.4,173.39,77.79,173.39,173.4S298.53,358.07,202.94,358.07Zm0-340.49c-92.14,0-167.09,75-167.09,167.09s75,167.07,167.09,167.07S370,276.81,370,184.68,295.06,17.59,202.94,17.59Z"/><circle class="cls-3" cx="202.93" cy="184.68" r="133.59"/><path class="cls-4" d="M274.54,301.65c5.56-61.57-1.73-250.56-1.73-250.56-34.08,10-33.94,63.6-33.94,63.6s-3.1,41.86-3,86.37l17.57-.13s12.22,19.2-3.92,27.16c-3.51,1.73-9.24,46.42.56,72.88C262.83,335.37,273.87,309.09,274.54,301.65Z"/><path class="cls-2" d="M263.22,320.36c-5.5,0-10.46-6.1-15.1-18.63-9.55-25.8-5.26-72.69.49-75.53,3.62-1.77,5.81-4.21,6.72-7.46,1.7-6.06-1.68-13.15-3.08-15.69l-18.45.13v-2.11c-.12-44.1,2.94-86.12,3-86.54,0-2.1.25-55.18,35.43-65.47l2.59-.75.1,2.69c.08,1.89,7.23,189.82,1.73,250.83h0c-.41,4.68-4.85,17.46-12.39,18.47A8.61,8.61,0,0,1,263.22,320.36Zm-8.61-121.54.62,1c.29.43,6.76,10.76,4.15,20.09-1.23,4.38-4.23,7.79-8.91,10.09-2.59,3.43-7.52,45.6,1.6,70.27,5.55,15,10,16.17,11.63,15.88,4.27-.58,8.34-10.11,8.75-14.67h0c5.11-56.65-.76-223.71-1.62-247.49C241.24,65.31,241,114.18,241,114.69s-3,41.11-3,84.26Z"/><path class="cls-4" d="M170.94,153.73c23.43-17.63,23.17-30.56,23.17-30.56L195,67l.1-7a6.28,6.28,0,0,0-12.56-.51l-.09,7.33-2.14,52.38a6.29,6.29,0,0,1-12.56-.51l2.12-52.05.14-7.6a6.28,6.28,0,1,0-12.56-.51L157,66.46l-2.11,51.72a6.28,6.28,0,1,1-12.56-.51l2.1-51.4.14-7.65A6.6,6.6,0,0,0,138.33,52a6.3,6.3,0,0,0-6.54,6l-.23,7.95s-1.87,37.42-2.34,55.66,23,33.13,23,33.13L146.15,302A14.8,14.8,0,0,0,161,317.38h0a14.8,14.8,0,0,0,14.7-15.28Z"/><path class="cls-2" d="M161,319.48A16.92,16.92,0,0,1,144,301.87l6-146c-4.69-3.21-23.41-17.11-23-34.29.47-18.06,2.33-55.34,2.34-55.71l.23-7.91a8.41,8.41,0,0,1,8.37-8.06h.36a8.79,8.79,0,0,1,5.92,2.72,8.37,8.37,0,0,1,2.37,6.1l-.14,7.61-2.1,51.43a4.17,4.17,0,0,0,4,4.35h.17a4.21,4.21,0,0,0,4.16-4l2.61-59.67a8.27,8.27,0,0,1,2.69-5.78,8.71,8.71,0,0,1,6-2.23,8.41,8.41,0,0,1,8,8.73L172,66.69l-2.12,52.1a4.17,4.17,0,0,0,4,4.34h.17a4.21,4.21,0,0,0,4.17-4l2.22-59.64a8.41,8.41,0,0,1,8.38-8.1h.35a8.41,8.41,0,0,1,8,8.73l-1,63.08c0,.49,0,13.8-23.14,31.54L177.84,302a16.77,16.77,0,0,1-4.71,12.24A17.63,17.63,0,0,1,161,319.48Zm-22.9-265.4a4.19,4.19,0,0,0-4.17,4L133.67,66c0,.42-1.88,37.64-2.34,55.65-.43,16.86,21.81,31.17,22,31.31l1,.65L148.25,302A12.72,12.72,0,0,0,161,315.29H161a12.7,12.7,0,0,0,12.6-13.13L168.8,152.7l.87-.66c22-16.57,22.33-28.73,22.33-28.85L193,60a4.19,4.19,0,0,0-4-4.4h-.17a4.19,4.19,0,0,0-4.17,4l-.08,7.26-2.14,52.43a8.35,8.35,0,0,1-2.71,5.83,9.14,9.14,0,0,1-6,2.22,8.41,8.41,0,0,1-8-8.73L168,59a4.19,4.19,0,0,0-4-4.4,3.38,3.38,0,0,0-3,1.11,4.1,4.1,0,0,0-1.35,2.9l-.49,7.95L157,118.26a8.33,8.33,0,0,1-2.7,5.82,9.11,9.11,0,0,1-6,2.23,8.41,8.41,0,0,1-8-8.73l2.24-59a4.19,4.19,0,0,0-1.2-3.07,4.49,4.49,0,0,0-3.05-1.42Z"/></svg>