<svg id="Layer_1" data-name="Layer 1" xmlns="http://www.w3.org/2000/svg" viewBox="0 0 100 100"><defs><style>.cls-1,.cls-3{fill:#fff;}.cls-2{fill:#dd7a27;}.cls-3{stroke:#231815;stroke-miterlimit:10;stroke-width:0.09px;}.cls-4{fill:#eecc5a;}.cls-5,.cls-6{fill:none;stroke-linecap:round;stroke-linejoin:round;stroke-width:1.36px;}.cls-5{stroke:#eecc59;}.cls-6{stroke:#fff;}.cls-7{font-size:7.93px;fill:#00282c;font-family:Ubuntu-Bold, Ubuntu;font-weight:700;}.cls-8{letter-spacing:-0.03em;}.cls-9{letter-spacing:0.03em;}</style></defs><title>logo1</title><rect class="cls-1" x="3.45" y="3.45" width="93.1" height="93.1" rx="20.46" ry="20.46"/><polygon class="cls-2" points="40.77 14.32 86.6 19.71 86.89 17.29 40.87 13.47 40.77 14.32"/><circle class="cls-3" cx="50.18" cy="49.96" r="29.79"/><circle class="cls-4" cx="50.18" cy="49.96" r="26.82"/><path class="cls-5" d="M55.95,75.47a16.74,16.74,0,0,1,3.38-7.34c8.07-10.54,0-18.89,0-18.89s-8.07-8.83,0-19.36,0-18.89,0-18.89"/><path class="cls-5" d="M44,75.3a16.83,16.83,0,0,1,3.35-7.17c8.07-10.54,0-18.89,0-18.89s-8.07-8.83,0-19.36,0-18.89,0-18.89"/><path class="cls-6" d="M55.14,75.63a16.67,16.67,0,0,1,3.41-7.5c8.07-10.54,0-18.89,0-18.89s-8.07-8.83,0-19.36,0-18.89,0-18.89"/><path class="cls-6" d="M43.28,75.11a16.93,16.93,0,0,1,3.32-7c8.07-10.54,0-18.89,0-18.89s-8.07-8.83,0-19.36,0-18.89,0-18.89"/><path class="cls-5" d="M49.88,76a16.47,16.47,0,0,1,3.47-7.92c8.07-10.54,0-18.89,0-18.89s-8.07-8.83,0-19.36,0-18.89,0-18.89"/><path class="cls-6" d="M49.1,76a16.48,16.48,0,0,1,3.47-7.9c8.07-10.54,0-18.89,0-18.89s-8.07-8.83,0-19.36,0-18.89,0-18.89"/><path class="cls-5" d="M38.56,73.32a18,18,0,0,1,2.84-5.19c8.07-10.54,0-18.89,0-18.89s-8.07-8.83,0-19.36,0-18.89,0-18.89"/><path class="cls-6" d="M37.89,73a18.2,18.2,0,0,1,2.72-4.86c8.07-10.54,0-18.89,0-18.89s-8.07-8.83,0-19.36,0-18.89,0-18.89"/><polygon class="cls-2" points="40.73 13.15 86.94 13.18 86.89 10.73 40.72 12.3 40.73 13.15"/><text class="cls-7" transform="translate(32.41 89.51)">HUNG<tspan class="cls-8" x="23" y="0">R</tspan><tspan class="cls-9" x="28.02" y="0">Y</tspan><tspan x="33.5" y="0">?</tspan></text></svg>